<?xml version="1.0" encoding="ISO-8859-1" standalone="no"?>
<!-- Created with Make The Cut! -->
<!DOCTYPE svg PUBLIC "-//W3C//DTD SVG 1.1//EN" "http://www.w3.org/Graphics/SVG/1.1/DTD/svg11.dtd">
<svg mtc:dpi="90" xmlns="http://www.w3.org/2000/svg" version="1.1" width="29.0882in" height="22in" viewBox="0 0 2617.942383 1980" xmlns:inkscape="http://www.inkscape.org/namespaces/inkscape" xmlns:xlink="http://www.w3.org/1999/xlink" xmlns:mtc="http://www.make-the-cut.com/namespaces/make-the-cut">
	<g inkscape:groupmode="layer" label="DIGIDOWN034" id="DIGIDOWN034">
		<path label="DIGIDOWN034" id="DIGIDOWN034" fill="#000000" stroke="none"  stroke-linejoin="round" d="M335.355,691.443 L336.937,685.147 L337.354,679.612 L336.558,674.761 L334.74,670.635 L331.85,667.155 L328.079,664.362 L323.396,662.114 L317.909,660.503 L311.712,659.412 L304.805,658.843 L297.263,658.743 L289.215,659.142 L280.676,659.973 L271.722,661.186 L262.419,662.795 L252.845,664.748 L233.16,669.614 L213.116,675.545 L193.31,682.261 L174.301,689.676 L165.21,693.472 L156.558,697.424 L148.313,701.329 L140.587,705.34 L133.473,709.279 L127.04,713.16 L121.292,716.982 L116.367,720.707 L116.038,710.065 L116.392,699.698 L117.386,689.464 L119.059,679.507 L121.36,669.746 L124.266,660.312 L127.798,651.075 L131.929,642.165 L136.673,633.517 L141.897,625.168 L147.73,617.081 L154.152,609.383 L161.049,601.986 L168.467,594.965 L176.361,588.244 L184.763,581.963 L193.703,575.996 L203.025,570.442 L212.855,565.33 L223.083,560.567 L233.759,556.232 L244.863,552.389 L256.355,548.96 L268.212,546.01 L280.453,543.474 L293.112,541.494 L306.076,539.979 L319.348,538.929 L332.971,538.421 L346.888,538.443 L361.159,539.007 L375.645,540.151 L375.471,534.56 L374.862,529.145 L373.81,523.907 L372.255,518.832 L367.951,509.301 L361.969,500.425 L354.559,492.322 L345.751,484.798 L335.668,477.946 L324.435,471.79 L312.144,466.218 L298.922,461.255 L284.848,456.85 L270.115,453.044 L254.798,449.786 L238.964,447.089 L222.764,444.852 L206.32,443.165 L189.715,441.914 L173.068,441.19 L156.533,440.89 L140.169,441.028 L124.118,441.632 L108.52,442.6 L93.3865,443.93 L78.9697,445.678 L65.2945,447.714 L52.4103,450.116 L40.5945,452.874 L29.8526,455.924 L20.267,459.213 L12.0932,462.797 L5.2597,466.662 L2.44446,468.618 L0,470.719 L9.62952,455.659 L20.0583,441.903 L31.5665,429.711 L44.0799,418.799 L57.4393,409.269 L71.6968,400.927 L86.6464,393.736 L102.231,387.68 L118.408,382.618 L135.058,378.524 L152.122,375.32 L169.489,372.915 L187.158,371.309 L204.901,370.321 L222.775,369.963 L240.609,370.132 L258.415,370.763 L276.01,371.752 L310.397,374.7 L327.025,376.491 L343.095,378.368 L358.629,380.265 L373.494,382.158 L387.642,383.967 L400.902,385.526 L413.33,386.91 L424.679,388.004 L435.042,388.691 L444.166,388.918 L452.123,388.635 L458.734,387.737 L470.237,380.697 L480.306,373.826 L489.095,367.292 L496.508,360.94 L502.737,354.809 L507.659,348.873 L511.441,343.237 L514.056,337.758 L515.484,332.501 L515.926,327.506 L515.256,322.681 L513.674,318.068 L511.048,313.64 L507.511,309.422 L503.122,305.43 L497.895,301.597 L491.822,297.989 L484.975,294.555 L477.433,291.243 L469.168,288.183 L460.195,285.31 L450.722,282.599 L440.618,280.025 L429.933,277.666 L418.76,275.404 L407.134,273.384 L382.657,269.756 L356.855,266.723 L329.851,264.309 L302.124,262.48 L273.952,261.162 L245.55,260.331 L217.37,260.015 L189.566,260.177 L162.537,260.77 L136.623,261.796 L124.113,262.402 L112.044,263.166 L100.355,264.011 L89.1183,264.949 L78.4067,265.929 L68.2086,267.017 L58.5846,268.225 L49.5538,269.489 L41.2592,270.772 L33.533,272.175 L26.6089,273.609 L20.4675,275.141 L15.0458,276.755 L10.5606,278.364 L6.85822,280.069 L4.14734,281.846 L2.37305,283.618 L1.58752,285.462 L4.57855,279.459 L7.94037,273.601 L12.0218,267.826 L16.7404,262.184 L22.0935,256.74 L28.0234,251.416 L34.5932,246.226 L41.7261,241.22 L49.3726,236.322 L57.5793,231.608 L66.3052,227 L75.5145,222.628 L85.2347,218.362 L95.408,214.191 L106.07,210.254 L117.101,206.462 L128.565,202.828 L140.403,199.337 L152.661,196.069 L165.226,192.932 L191.396,187.14 L218.771,182.002 L247.137,177.539 L276.493,173.817 L306.634,170.794 L337.379,168.432 L368.564,166.832 L400.13,165.98 L431.881,165.836 L463.747,166.451 L495.434,167.9 L526.915,170.041 L557.946,173.028 L588.488,176.781 L618.39,181.338 L647.438,186.788 L675.53,192.975 L702.499,200.066 L728.223,207.969 L752.489,216.773 L775.311,226.414 L786.091,231.537 L796.402,236.966 L797.363,232.681 L797.682,228.263 L797.588,223.894 L797.003,219.623 L796.039,215.272 L794.644,211.033 L790.639,202.636 L785.127,194.393 L778.112,186.306 L769.658,178.387 L759.889,170.663 L748.875,163.148 L736.622,155.776 L723.186,148.627 L708.695,141.726 L693.163,135.009 L676.714,128.504 L659.342,122.274 L641.195,116.217 L622.312,110.476 L602.71,104.987 L582.448,99.7613 L561.671,94.7633 L540.428,90.0698 L518.785,85.6944 L474.379,77.8468 L429.186,71.1754 L383.574,65.8882 L338.143,61.9775 L293.417,59.4859 L309.295,52.0186 L326.445,44.8835 L345.053,38.1194 L365.122,31.727 L386.551,25.8848 L409.417,20.5429 L433.586,15.6738 L459.102,11.4194 L485.964,7.77991 L514.089,4.80579 L543.483,2.49729 L574.129,0.918174 L606.031,0.068965 L639.105,0 L673.41,0.788956 L708.874,2.4224 L745.488,4.96492 L783.254,8.41596 L822.088,12.826 L862.059,18.2098 L903.076,24.6805 L945.137,32.2391 L988.245,40.886 L1032.382446,50.6845 L1077.423706,61.608 L1123.533325,73.8252 L1170.532837,87.2317 L1218.457886,101.969 L1267.25,118.024 L1316.966797,135.411 L1367.602783,154.192 L1419.005127,174.406 L1372.585083,184.878 L1327.137451,195.488 L1282.771851,206.389 L1239.444580,217.439 L1196.971436,228.869 L1155.514526,240.577 L1114.914551,252.665 L1075.226440,265.209 L1036.378784,278.197 L998.363,291.693 L961.114,305.683 L924.607,320.297 L888.838,335.533 L853.734,351.442 L819.341,368.102 L785.613,385.436 L752.443,403.623 L719.846,422.598 L687.857,442.502 L656.351,463.311 L625.312,485.086 L594.803,507.843 L564.673,531.682 L534.993,556.553 L505.605,582.621 L476.653,609.785 L447.976,638.21 L419.571,667.896 L391.437,698.845 L363.554,731.183 L335.783,764.884 L308.26,799.974 L306.293,795.281 L304.67,790.861 L303.393,786.713 L302.459,782.837 L301.553,775.621 L301.709,769.095 L302.808,763.167 L304.758,757.683 L307.332,752.397 L310.405,747.282 L317.505,736.647 L321.174,730.92 L324.822,724.653 L328.208,717.728 L331.158,709.978 L333.581,701.246 L335.355,691.443 z M1234.335938,1604.565308 L1216.115112,1598.225342 L1198.418823,1591.928467 L1181.236206,1585.738770 L1164.594727,1579.527344 L1132.74,1566.666260 L1102.716919,1553.048584 L1088.28,1545.891357 L1074.27,1538.287720 L1060.598145,1530.352417 L1047.222290,1521.944214 L1034.151245,1513.062988 L1021.401672,1503.58 L1008.901978,1493.547119 L996.726,1482.912598 L1010.615845,1486.275024 L1025.43,1489.696045 L1041.067139,1493.021362 L1057.45,1496.3 L1074.58,1499.534668 L1092.39,1502.71 L1110.78,1505.671875 L1129.724121,1508.547363 L1169.002930,1513.72 L1209.855591,1518.082520 L1251.718994,1521.45 L1294.096069,1523.653809 L1336.481323,1524.52 L1378.451782,1523.828491 L1419.384155,1521.381226 L1439.332520,1519.446533 L1458.907471,1517.033813 L1477.845093,1514.153076 L1496.302124,1510.702637 L1514.025879,1506.565918 L1531.051880,1501.948120 L1547.336426,1496.707275 L1562.69,1490.803955 L1577.235718,1484.264160 L1590.71,1477.098999 L1553.36,1513.422119 L1516.39,1548.218506 L1479.825439,1581.425415 L1443.773804,1613.132080 L1408.076416,1643.441284 L1372.686768,1672.275269 L1337.876587,1699.623535 L1303.486572,1725.586914 L1269.47,1750.088867 L1235.863037,1773.27 L1202.868286,1795.107788 L1170.22,1815.611328 L1138.057251,1834.743896 L1106.353394,1852.633545 L1075.187988,1869.23 L1044.434448,1884.506226 L1014.186401,1898.616943 L984.452,1911.562500 L955.187,1923.201172 L926.408,1933.802612 L898.141,1943.24 L870.384,1951.51 L843.201,1958.63 L816.424,1964.763062 L790.208,1969.808228 L764.541,1973.83 L739.355,1976.815063 L714.641,1978.826782 L666.947,1980 L621.442,1977.411499 L578.07,1971.32 L536.808,1961.852539 L497.692,1949.152100 L460.937,1933.463379 L426.264,1914.861328 L393.835,1893.515015 L363.741,1869.642944 L335.888,1843.36 L310.248,1814.794556 L286.916,1784.166382 L265.935,1751.552246 L247.159,1717.054199 L230.784,1680.981445 L216.758,1643.257813 L205.019,1604.202759 L195.634,1563.766479 L188.635,1522.217651 L184.057,1479.635010 L181.807,1436.133301 L182.005,1391.802734 L184.746,1346.863525 L189.893,1301.287598 L197.479,1255.217773 L207.592,1208.936523 L220.314,1162.33 L235.547,1115.574829 L253.369,1068.893311 L273.812,1022.155090 L297.021,975.657 L322.896,929.516 L351.521,883.678 L383.06,838.314 L417.354,793.524 L454.587,749.414 L494.86,706.137 L538.171,663.695 L584.635,622.177 L634.29,581.725 L687.236,542.495 L743.541,504.499 L803.381,467.843 L866.794,432.668 L933.868,399.192 L1004.837036,367.264 L1079.76,337.23 L1158.78,309.055 L1242.13,282.918 L1329.831787,259.027 L1396.683594,241.701 L1430.05,233.192 L1463.307495,224.862 L1496.34,216.954 L1529.066162,209.584 L1561.382446,202.866 L1593.468018,196.968 L1606.654297,194.697 L1612.974243,193.603 L1618.868408,192.623 L1624.27,191.741 L1628.915405,190.969 L1632.595825,190.33 L1635.235229,189.876 L1638.825073,189.352 L1643.582153,188.67 L1649.36,187.933 L1655.83,187.072 L1663.058105,186.102 L1670.765015,185.098 L1686.983643,183.056 L1702.985229,181.103 L1710.55,180.135 L1717.544800,179.318 L1723.872925,178.495 L1729.275513,177.947 L1733.661743,177.455 L1736.812134,177.108 L1742.483765,176.549 L1748.965698,175.959 L1755.444946,175.368 L1761.116577,174.81 L1766.505371,174.326 L1772.896729,173.85 L1780.11,173.278 L1788.104492,172.803 L1796.668335,172.178 L1805.68,171.646 L1824.565430,170.628 L1843.72,169.6 L1852.91,169.172 L1861.828247,168.755 L1870.197144,168.424 L1877.884766,168.151 L1884.696289,167.898 L1890.741211,167.818 L1903.575562,167.548 L1916.003906,167.327 L1921.724976,167.179 L1926.696289,167.078 L1930.873901,166.944 L1934.087402,166.944 L1939.473389,166.795 L1944.433716,166.758 L1948.441040,166.79 L1949.918701,166.763 L1950.984375,166.785 L1953.296997,166.932 L1956.818115,167.063 L1960.94,167.186 L1965.27,167.284 L1980.674927,167.549 L1994.858276,167.894 L2007.833130,168.255 L2019.821899,168.544 L2030.78,168.953 L2041,169.344 L2050.418701,169.766 L2059.358887,170.223 L2070.213379,170.811 L2080.397705,171.394 L2084.778564,171.571 L2088.541260,171.819 L2091.601074,171.921 L2093.718750,172.028 L2097.816650,172.279 L2103.284912,172.683 L2109.871338,173.185 L2117.04,173.808 L2124.411621,174.407 L2131.5,175.081 L2137.946777,175.621 L2143.18,176.176 L2145.211670,176.399 L2148.021240,176.717 L2151.501221,177.04 L2155.365723,177.444 L2164.1,178.259 L2173.391602,179.259 L2181.807129,180.007 L2188.945313,180.758 L2195.49,181.453 L2201.961426,182.199 L2208.814209,183.025 L2216.57,184.038 L2225.837402,185.166 L2231.127441,185.799 L2237.046387,186.631 L2244.093994,187.497 L2250.06,188.405 L2255.552734,189.349 L2261.081543,190.434 L2266.992188,191.934 L2273.98,193.724 L2282.458252,196.093 L2287.38,197.52 L2292.864990,199.131 L2298.047852,200.612 L2302.648438,201.973 L2310.402100,204.258 L2316.375732,206.105 L2320.888428,207.58 L2324,208.697 L2326.01,209.651 L2327.318115,210.458 L2327.9,211.183 L2329.71,213.099 L2331.984619,214.377 L2334.231445,215.513 L2335.692627,217.156 L2336.23,218.741 L2335.44,219.981 L2334.572021,220.27 L2333.028320,220.617 L2330.883301,220.973 L2328.114746,221.4 L2321.102783,222.282 L2312.555420,223.177 L2303.14,224.027 L2293.277100,224.783 L2283.521240,225.36 L2274.6,225.777 L2269.26,226.004 L2264.536865,226.223 L2256.514160,226.493 L2250.037598,226.749 L2244.635010,226.963 L2239.776367,227.156 L2234.88,227.206 L2229.548096,227.433 L2223.225586,227.588 L2214.213867,227.786 L2204.622803,228.197 L2184.831055,229.092 L2175.338867,229.658 L2166.662354,230.193 L2159.065430,230.685 L2152.998047,231.227 L2147.774170,231.879 L2141.575195,232.729 L2134.856934,233.806 L2127.905273,235.035 L2120.931885,236.393 L2114.43,237.715 L2108.68,238.993 L2103.798584,240.251 L2100.293945,241.328 L2098.412598,242.341 L2097.811035,243.287 L2098.313721,244.731 L2099.676025,246.219 L2102.332031,248.245 L2106.116699,250.64 L2110.593750,253.246 L2114.996338,255.568 L2119.017334,257.477 L2123.356934,259.118 L2128.333740,260.623 L2134.785645,262.101 L2138.682861,262.98 L2143.173584,263.915 L2148.282227,264.779 L2154.08,265.853 L2160.584229,267.075 L2168.065918,268.432 L2178.497314,270.405 L2188.387939,272.399 L2197.533936,274.439 L2205.754395,276.419 L2212.923096,278.314 L2218.894043,280.161 L2223.442383,281.778 L2226.48,283.28 L2227.803955,284.293 L2228.581299,285.391 L2228.735107,286.562 L2228.317627,287.946 L2227.301514,289.608 L2225.513428,291.445 L2223.024902,293.738 L2219.731934,296.397 L2213.37,300.894 L2206.325684,304.513 L2198.055908,307.274 L2188.45,309.356 L2183.01,310.096 L2177.066406,310.665 L2170.628418,311.063 L2163.594482,311.405 L2155.947998,311.485 L2147.65,311.496 L2138.641846,311.359 L2128.866699,311.062 L2114.45,310.87 L2100.607178,311.131 L2094.257080,311.414 L2088.41,311.869 L2083.146973,312.379 L2078.8,313.013 L2073.102783,313.365 L2070.578613,313.306 L2068.65,312.906 L2065.791504,311.842 L2062.388428,310.195 L2058.562500,307.993 L2054.214600,305.414 L2049.344971,302.124 L2044.093506,298.42 L2038.281738,294.197 L2032.052490,289.418 L2025.944092,284.666 L2020.415161,280.368 L2010.565918,273.029 L2002.224609,267.141 L1994.616577,262.211 L1987.75,258.236 L1980.9,254.802 L1973.654663,251.685 L1965.791138,248.641 L1960.512207,246.671 L1956.452759,244.956 L1953.607300,243.493 L1952.036255,242.363 L1951.624268,241.473 L1952.514160,240.722 L1954.445068,240.121 L1957.416870,239.669 L1959.993164,239.201 L1961.921265,238.6 L1963.154419,237.852 L1963.657104,237.02 L1963.588379,236.403 L1963.052856,235.757 L1961.923950,235.053 L1960.21,234.294 L1957.545898,233.271 L1953.906738,232.111 L1949.124878,230.646 L1943.098877,228.722 L1934.831665,226.33 L1927.341797,224.368 L1920.48,222.938 L1913.886230,221.831 L1907.261475,221.187 L1900.452759,220.773 L1893.036987,220.7 L1884.84,220.866 L1875.893555,221.411 L1866.708984,222.442 L1857.444702,223.859 L1848.136597,225.802 L1829.967896,230.783 L1821.31,233.798 L1813.057251,237.098 L1805.586548,240.829 L1797.198486,245.439 L1788.24,250.867 L1779.54,256.618 L1771.158081,262.5 L1763.681885,268.172 L1757.576294,273.391 L1755.156494,275.698 L1753.261353,277.713 L1751.434937,279.741 L1750.556030,280.428 L1749.855591,280.885 L1749.287109,281.369 L1748.457642,282.133 L1747.331543,283.37 L1745.897827,284.811 L1742.61,288.678 L1738.811646,293.106 L1734.801636,297.893 L1730.871216,302.629 L1727.481934,307.009 L1724.793091,310.599 L1714.336792,326.757 L1705.281372,343.543 L1697.637573,360.957 L1691.518188,378.757 L1686.914917,396.671 L1683.97,414.663 L1682.605591,432.449 L1683.07,449.813 L1685.137939,466.573 L1688.845825,482.807 L1694.105469,498.358 L1700.963745,513.306 L1709.252930,527.482 L1719.231201,540.939 L1730.758667,553.714 L1743.681274,565.575 L1748.037354,569.092 L1752.44,572.353 L1756.3,575.031 L1759.166504,576.699 L1762,577.891 L1765.637451,579.051 L1769.817749,580.189 L1774.613281,581.256 L1780.221802,582.29 L1786.354980,583.367 L1793.375244,584.361 L1800.94,585.335 L1808.036499,586.278 L1814.707886,587.334 L1820.173584,588.406 L1822.211548,588.897 L1823.738647,589.282 L1829.091797,591.535 L1835.823608,595.213 L1843.876587,600.238 L1853.206787,606.532 L1857.356812,609.739 L1861.287231,613.368 L1865.03,617.562 L1868.705688,622.41 L1872.221313,627.694 L1875.71,633.774 L1879.137207,640.445 L1882.534790,647.912 L1887.168213,658.113 L1891.787598,667.107 L1896.566284,674.997 L1901.573364,682.13 L1907.03,688.688 L1913.11,694.841 L1919.975464,700.755 L1927.704346,706.715 L1938.627441,714.346 L1949.751099,721.348 L1955.788086,724.815 L1962.286499,728.31 L1969.287598,731.977 L1976.98,735.855 L1982.347534,738.379 L1988.477905,741.062 L1992.191284,742.505 L1996.442993,744.261 L2001.403320,746.164 L2007.18,748.305 L2013.842651,750.697 L2021.697876,753.471 L2030.665405,756.678 L2040.97,760.231 L2052.824707,764.373 L2066.16,769.094 L2081.205322,774.303 L2098.181885,780.183 L2107.168701,783.326 L2115.713379,786.311 L2131.19,791.678 L2144.8,796.388 L2156.717041,800.543 L2166.942627,804.146 L2175.734375,807.25 L2183.023682,809.839 L2188.994873,812.02 L2193.787598,813.755 L2197.63,815.225 L2200.461914,816.417 L2202.475098,817.371 L2203.87,818.063 L2204.62,818.622 L2205.18,819.474 L2204.606445,820.292 L2202.98,821.024 L2200.187256,821.58 L2196.086426,821.997 L2190.494385,822.171 L2183.553955,822.398 L2174.855469,822.392 L2164.511719,822.245 L2142.146484,821.667 L2119.35,820.264 L2096.066895,818.291 L2072.443604,815.712 L2048.581299,812.347 L2024.378540,808.375 L2000.156372,803.863 L1975.678833,798.629 L1968.315308,797.028 L1961.558716,795.419 L1949.067261,792.415 L1937.693604,789.51 L1926.743042,786.493 L1915.731934,783.127 L1904.122192,779.436 L1891.111938,775.053 L1884.053589,772.645 L1876.39,769.911 L1868.584839,767.214 L1861.55,764.678 L1855.143066,762.339 L1849.097900,760.209 L1838.312012,756.087 L1828.707275,752.078 L1819.561157,748.099 L1810.244751,743.681 L1800.104370,738.691 L1794.602905,735.871 L1788.678589,732.83 L1783.482056,730.141 L1778.774414,727.687 L1770.562134,723.098 L1763.591309,718.969 L1757.56,714.834 L1752.028198,710.537 L1746.606445,705.726 L1740.918213,700.258 L1734.71,693.744 L1727.995605,686.79 L1721.953125,680.779 L1716.24,675.439 L1710.755249,670.616 L1699.488770,662.044 L1693.15,657.779 L1686.283203,653.471 L1677.321167,647.989 L1669.581299,643.365 L1663.121338,639.677 L1657.792969,636.692 L1654.41,634.917 L1649.778442,632.412 L1644.447266,629.427 L1639.096924,626.506 L1633.326416,623.363 L1627.055908,620.049 L1620.977783,616.775 L1615.98,614.126 L1603.657837,607.409 L1592.168823,600.867 L1581.72,594.474 L1572.236938,588.281 L1563.7,582.354 L1556.372681,576.743 L1550.165405,571.502 L1545.117188,566.502 L1540.134888,559.908 L1536.047974,552.23 L1533.183228,543.803 L1531.343018,534.652 L1530.543823,524.983 L1530.854126,515.142 L1532.39,505.221 L1535.097656,495.413 L1536.778564,491.212 L1538.901611,486.166 L1541.488892,480.481 L1544.34,474.516 L1547.33,468.514 L1550.33,462.781 L1553.186646,457.754 L1555.738159,453.534 L1560.932007,445.313 L1565.878540,437.309 L1570.267578,430.058 L1572.182007,426.976 L1573.772217,424.162 L1575.645386,420.939 L1577.757568,417.23 L1579.844971,413.649 L1581.62,410.604 L1582.412964,409.03 L1583.355103,407.085 L1585.55,402.322 L1587.93,396.996 L1590.07,391.552 L1591.833740,386.632 L1592.99,382.991 L1593.46,380.412 L1593.165894,378.611 L1591.916138,377.547 L1589.762817,376.965 L1586.51,376.823 L1582.077881,376.903 L1578.043213,376.999 L1573.148804,377.05 L1568.136230,377.01 L1563.587891,376.999 L1495.978027,378.037 L1430.461060,382.189 L1367.078247,389.262 L1305.653687,399.153 L1246.29,411.681 L1188.871704,426.756 L1133.503418,444.199 L1079.945068,463.893 L1028.328491,485.799 L978.536,509.558 L930.605,535.31 L884.537,562.722 L840.306,591.922 L797.783,622.549 L757.128,654.502 L718.182,687.882 L681.128,722.459 L645.815,758.002 L612.279,794.651 L580.457,832.058 L550.547,870.265 L522.312,909.09 L495.948,948.572 L471.316,988.414 L448.561,1028.58 L427.56,1068.978760 L408.461,1109.572510 L391.187,1150.078247 L375.741,1190.495850 L362.258,1230.787598 L350.656,1270.734619 L340.958,1310.208984 L333.232,1349.223022 L327.527,1387.521118 L323.718,1425.076416 L321.971,1461.723022 L322.303,1497.397339 L324.737,1531.97 L329.175,1565.286621 L335.816,1597.323242 L344.671,1627.745605 L355.721,1656.617676 L368.932,1683.798584 L384.483,1709.057373 L402.388,1732.33 L422.597,1753.54 L445.114,1772.353516 L470.13,1788.81 L497.607,1802.766113 L527.649,1814.044800 L560.168,1822.426636 L595.245,1827.86 L632.977,1830.167847 L673.399,1829.22 L716.559,1824.76 L762.446,1816.852295 L786.465,1811.416992 L811.137,1805.112183 L836.565,1797.76 L862.726,1789.425415 L889.552,1780.157104 L917.161,1769.713257 L945.497,1758.35 L974.537,1745.861328 L1004.405823,1732.274170 L1034.925781,1717.484863 L1066.264282,1701.66 L1098.256470,1684.634033 L1131.155029,1666.458374 L1164.773193,1647.092896 L1199.198853,1626.423706 L1234.335938,1604.565308 z M2333.495361,840.253 L2313.725342,831.716 L2292.656250,821.705 L2270.337646,810.295 L2246.884521,797.578 L2222.302734,783.555 L2196.762207,768.328 L2170.254883,751.964 L2142.871582,734.346 L2136.568115,730.222 L2128.85,725.2 L2120.017090,719.411 L2110.363037,713.05 L2100.098877,706.427 L2089.617920,699.558 L2079.25,692.78 L2069.241211,686.211 L2049.592041,673.551 L2040.226318,667.449 L2031.236694,661.761 L2023.131592,656.659 L2016.15,652.26 L2010.38,648.783 L2006.278564,646.321 L2000.024536,642.609 L1994.808838,639.38 L1992.685669,638.001 L1991.114624,636.871 L1989.963867,635.962 L1989.45,635.521 L1989.268921,634.479 L1990.504883,634 L1992.757080,633.8 L1996.22,634.188 L2000.692017,634.917 L2005.998413,636.09 L2012.087524,637.694 L2018.86,639.573 L2027.715576,642.355 L2037.056763,645.707 L2047.408569,649.671 L2058.971680,654.556 L2072.276123,660.407 L2079.55,663.729 L2087.486572,667.391 L2096.025879,671.379 L2105.163574,675.692 L2115.021240,680.423 L2125.53,685.557 L2135.568359,690.392 L2144.947998,694.823 L2153.577637,699.03 L2161.498779,702.755 L2168.95,706.182 L2175.852539,709.36 L2188.206543,714.946 L2199.206543,719.647 L2209.146484,723.659 L2218.701904,727.256 L2228.122559,730.558 L2240.413574,734.524 L2251.913574,737.79 L2262.877930,740.409 L2273.207764,742.227 L2282.988281,743.461 L2292.312988,743.999 L2301.297119,743.93 L2309.822510,743.163 L2318.702148,741.666 L2322.767090,740.774 L2326.44,739.865 L2329.542969,738.772 L2332.02,737.815 L2333.632568,736.813 L2334.426270,735.907 L2334.47,735.046 L2334.407227,733.427 L2334.278076,731.46 L2334.041748,729.068 L2333.074951,725.051 L2331.215576,720.783 L2328.595459,716.354 L2325.107178,711.88 L2320.97,707.337 L2316.274170,702.879 L2310.874512,698.608 L2305.21,694.617 L2301.2,692.041 L2296.78,688.845 L2287.8,682.155 L2283.908447,679.001 L2280.587891,676.302 L2278.29,674.15 L2277.335938,672.948 L2277.14,671.97 L2277.49,671.24 L2278.47,670.708 L2280.054932,670.502 L2282.392334,670.521 L2285.487793,670.764 L2289.401611,671.246 L2294.2,671.977 L2305.636719,674.293 L2317.276611,677.521 L2329.155762,681.536 L2341.127930,686.373 L2353.152588,691.956 L2365.09,698.259 L2376.948975,705.28 L2388.68,712.878 L2400.168457,721.027 L2411.215332,729.686 L2422.01,738.897 L2432.317383,748.539 L2441.963379,758.447 L2451.12,768.787 L2459.478271,779.43 L2467.187988,790.273 L2471.052246,796.163 L2474.323486,801.663 L2479.506348,811.779 L2483.065918,821.355 L2485.466309,831.359 L2486.076172,835.835 L2486.295898,839.898 L2485.636719,846.922 L2483.043945,852.94 L2478.632813,858.379 L2471.986084,863.285 L2463.405762,866.583 L2452.966064,868.491 L2440.721924,868.817 L2426.66,867.561 L2410.891113,864.877 L2393.307617,860.611 L2374.152832,854.881 L2363.512695,851.326 L2352.355957,847.395 L2341.916260,843.546 L2337.252686,841.838 L2333.495361,840.253 z M1998.206299,511.59 L1998.36,510.55 L1999.5,508.915 L2001.367676,506.694 L2004.012573,503.965 L2007.146484,500.804 L2010.942261,497.378 L2019.607666,489.814 L2029.377319,481.81 L2039.498413,474.014 L2049.347656,466.898 L2053.857422,463.888 L2058.032227,461.21 L2070.941162,453.527 L2084.168701,446.244 L2091.153320,442.612 L2098.555420,438.868 L2106.578125,435.052 L2115.246338,431.035 L2124.713867,426.716 L2135.106934,422.122 L2146.582031,417.152 L2159.142334,411.804 L2173.13,406.018 L2188.448242,399.639 L2205.364502,392.656 L2224.016602,385.031 L2242.737305,377.42 L2260.002197,370.375 L2275.855469,363.974 L2290.308105,358.218 L2303.584961,352.953 L2315.702881,348.116 L2326.837646,343.81 L2337.005371,339.973 L2346.302490,336.488 L2354.973633,333.409 L2362.924805,330.582 L2370.41,328.059 L2384.103760,323.684 L2396.92,319.996 L2419.438477,314.381 L2441.474365,309.804 L2463.002197,306.391 L2483.936523,304.194 L2504.247559,303.072 L2523.833496,303.204 L2542.71,304.46 L2560.887451,306.842 L2567.314453,308.114 L2574.79,309.806 L2582.742188,311.797 L2590.844482,314.021 L2598.471680,316.279 L2605.32,318.442 L2610.801270,320.387 L2612.84,321.213 L2614.426758,321.945 L2616.137695,323.039 L2617.415039,324.308 L2617.942383,325.957 L2617.934082,328.232 L2617.255615,331.169 L2615.95,335.18 L2613.882813,340.304 L2612.65,343.326 L2611.114258,346.822 L2600.756836,367.954 L2588.155518,387.95 L2573.541016,406.722 L2556.913330,424.206 L2538.19,440.517 L2517.455811,455.539 L2494.796631,469.222 L2470.126709,481.617 L2460.804932,485.565 L2450.2,489.579 L2438.947510,493.459 L2427.854004,496.904 L2417.414307,499.814 L2412.816650,500.998 L2408.594971,501.992 L2404.964111,502.708 L2401.863281,503.133 L2399.616455,503.334 L2398.111328,503.154 L2395.677979,501.978 L2395.103760,500.252 L2395.447266,498.918 L2396.205322,497.203 L2397.446777,495.118 L2399.198975,492.472 L2405.766113,484.07 L2414.151367,475.643 L2419.056885,471.378 L2424.511475,467.027 L2430.52,462.59 L2437.165039,458.018 L2443.907959,453.266 L2450.101318,448.6 L2455.701660,444.211 L2460.607178,439.946 L2464.84,435.675 L2468.588623,431.503 L2471.656494,427.39 L2474.101074,423.35 L2476.034668,419.202 L2477.432617,415.075 L2478.3,410.906 L2478.668701,406.566 L2477.778809,397.679 L2475.067871,388.213 L2473.958252,385.506 L2472.582275,383.413 L2470.821533,381.908 L2468.38,380.797 L2465.056641,380.037 L2460.664795,379.591 L2455.028809,379.353 L2447.854736,379.398 L2431.66,379.705 L2415.631836,380.515 L2399.701660,381.813 L2383.73,383.639 L2367.706787,385.99 L2351.6,388.791 L2335.176270,392.129 L2318.567627,396.03 L2314.255371,397.139 L2309.427002,398.476 L2304.08,400.039 L2298.297852,401.779 L2285.712891,405.648 L2272.554199,410.002 L2259.67,414.344 L2247.61,418.591 L2242.234619,420.617 L2237.312744,422.402 L2232.995117,424.179 L2229.41,425.641 L2226.971924,426.74 L2223.747314,428.076 L2220.15,429.602 L2216.103516,431.368 L2207.207520,435.203 L2198.18,439.011 L2193.268555,441.067 L2187.451172,443.603 L2180.928223,446.326 L2173.94,449.354 L2159.523926,455.586 L2152.391113,458.652 L2145.7,461.54 L2134.804688,466.297 L2124.466553,470.635 L2105.177490,478.73 L2087.706299,485.798 L2071.685547,492.031 L2056.903564,497.45 L2043.332642,502.186 L2030.58,506.221 L2018.552979,509.672 L2013.153198,511.158 L2008.857544,512.203 L2005.416138,512.959 L2002.793091,513.349 L2000.854004,513.346 L1999.62,513.157 L1998.206299,511.59 z " />
	</g>
</svg>
